<svg width="36" height="36" viewBox="0 0 36 36" fill="none" xmlns="http://www.w3.org/2000/svg">
<path d="M18.0011 0.000499027C27.9691 -0.0731055 36 8.00499 36 17.9807C36 27.9196 27.9668 36 18.0011 36C8.03319 36 0 27.9219 0 17.9807C0.00229782 8.00499 8.03549 0.0373013 18.0011 0.000499027ZM7.1784 11.3563V24.9455H11.8269C13.4629 24.9455 14.6165 24.9455 15.2116 24.8719C16.2525 24.7224 17.1464 24.3889 17.7415 23.7172C18.4102 23.0088 18.7089 22.1532 18.7089 21.0744C18.7089 20.405 18.5228 19.5862 18.1505 18.8778C17.7415 18.0589 17.1464 17.6127 16.2548 17.6127C17.5944 17.1296 18.2631 16.1981 18.2631 14.7835C18.2631 13.9278 17.9667 13.1458 17.3715 12.5869C16.8132 11.9911 16.1445 11.5081 15.2897 11.469C14.6946 11.3954 13.9501 11.3563 12.8724 11.3563H7.1784ZM10.2667 13.7369H11.6063C12.2014 13.7369 12.7966 13.7001 13.2056 13.7369C13.6514 13.7369 13.9501 13.7369 14.0971 13.7369C14.9152 13.8864 15.3242 14.3695 15.3242 15.1883C15.3242 16.1199 14.9152 16.6765 13.9478 16.7524C13.8352 16.7524 13.5755 16.6788 13.2033 16.7524C12.7943 16.7915 12.3485 16.7915 11.8292 16.7915H10.2667V13.7369ZM10.2667 18.9123H13.3917C14.0236 18.9123 14.3959 18.8755 14.3959 18.9491C14.3959 18.9859 14.4694 18.9859 14.6923 19.0618C15.4368 19.3976 15.9561 19.9542 15.8826 20.8122C15.8458 21.8173 15.3609 22.19 14.4694 22.5235C14.32 22.5603 14.2833 22.6362 14.32 22.6362C14.3936 22.6362 14.2074 22.6362 13.6881 22.6362H10.2667V18.9123ZM26.8156 21.7414C26.703 22.3004 26.4066 22.673 25.8482 22.9329C25.3657 23.1192 24.8808 23.1928 24.5453 23.1928C23.7273 23.1928 23.2425 22.9697 22.7967 22.5235C22.3509 22.0772 22.2016 21.5183 22.2016 20.7731H29.2674C29.38 18.6891 28.8951 17.1987 27.9645 16.1935C27.1465 15.301 25.993 14.8893 24.3569 14.8893C22.8312 14.8893 21.5306 15.3723 20.6758 16.3039C19.7843 17.3091 19.2627 18.5005 19.2627 20.0278C19.2627 21.3688 19.5591 22.6339 20.3403 23.4895C21.3812 24.7178 22.6841 25.3503 24.5063 25.3503C25.5104 25.3503 26.5881 25.0536 27.7048 24.4579C28.7458 23.899 29.2674 22.9697 29.2674 21.7391H26.8156V21.7414ZM21.5352 12.1751V13.8128H27.1511V12.1751H21.5352ZM26.0711 17.3873C26.4433 17.7967 26.6295 18.3188 26.703 18.9146H22.2406C22.2406 18.3188 22.4635 17.8726 22.9093 17.3873C23.3183 16.941 23.9134 16.7547 24.5453 16.7547C25.1795 16.7524 25.7012 16.9387 26.0711 17.3873Z" fill="#2C2247"/>
</svg>
