<svg width="36" height="36" viewBox="0 0 36 36" fill="none" xmlns="http://www.w3.org/2000/svg">
<path d="M18 0.000501834C27.9673 -0.0731827 36 7.97685 36 17.9634C36 27.95 27.9673 36 18 36C8.03268 36 0 27.9523 0 17.9634C0 7.97455 8.03268 0.000501834 18 0.000501834ZM6.87924 20.4249C6.87924 21.2815 6.95277 22.1013 6.99183 22.921C7.10442 24.6733 7.73628 26.0894 8.85065 27.2062C10.0041 28.399 11.4172 28.9217 13.1266 29.0322C13.9078 29.069 14.7626 29.1059 15.5805 29.1059H18.0368C18.818 29.1059 19.6359 29.1796 20.4907 29.1059C21.3087 29.069 22.1634 29.069 22.9814 29.0322C24.6908 28.9194 26.1062 28.399 27.1838 27.2062C28.374 26.0871 28.9691 24.671 29.0426 22.921C29.1162 21.3184 29.1552 19.642 29.1552 17.9634C29.1552 16.2848 29.0817 14.6085 29.0426 13.0058C29.0059 11.2927 28.374 9.83739 27.1838 8.7206C26.1797 7.60152 24.7667 7.00744 22.9814 6.93145C22.0899 6.89461 21.2696 6.85777 20.4149 6.85777H15.507C14.6523 6.85777 13.8343 6.93145 13.0163 6.93145C11.3069 7.00514 9.8915 7.60152 8.85065 8.68376C7.73398 9.80285 7.10212 11.1798 6.99183 12.9321C6.95507 13.6782 6.95507 14.5348 6.87924 15.3914C6.84248 16.1743 6.84248 17.0308 6.84248 17.8874C6.84248 18.7463 6.87924 19.566 6.87924 20.4249ZM9 13.0081C9.07353 11.8522 9.48251 10.9956 10.227 10.1022C10.9346 9.39298 11.8997 9.05909 13.1266 8.90942C13.8343 8.87258 14.6523 8.94626 15.4312 8.87258C16.2859 8.83574 17.1039 8.83574 17.9609 8.83574C18.8157 8.83574 19.6336 8.87258 20.4516 8.87258C21.3064 8.87258 22.0876 8.87258 22.832 8.90942C24.0957 9.02225 25.0631 9.39298 25.8075 10.1759C26.5887 10.9219 26.9242 11.889 27.0345 13.121C27.108 14.5739 27.1471 16.1766 27.1471 17.9657C27.1471 19.6789 27.0735 21.3207 27.0345 22.8842C26.9977 24.1138 26.6255 25.0095 25.8075 25.7901C25.0631 26.5361 24.0957 26.9092 22.832 27.0197C22.0876 27.0934 21.3064 27.1325 20.4884 27.1325C19.7072 27.1325 18.8892 27.1325 18.0345 27.1325C17.1797 27.1325 16.3618 27.1325 15.5805 27.1325C14.7258 27.1325 13.9078 27.0957 13.1634 27.0197C12.0467 26.946 11.0426 26.5361 10.2637 25.7901C9.44575 25.0072 9.07353 24.0009 9 22.8082C8.88741 21.4289 8.85065 19.7157 8.85065 17.9266C8.85065 16.1006 8.88741 14.4979 9 13.0081ZM14.0204 22.0276C15.0613 23.1467 16.3641 23.7407 18 23.7407C19.6359 23.7407 20.8629 23.1444 21.9796 22.0276C23.0572 20.9476 23.6913 19.5683 23.6913 18.0394C23.6913 16.4368 23.0595 15.0575 21.9796 13.9775C20.8261 12.8216 19.5624 12.2644 18 12.2644C16.4376 12.2644 15.1739 12.8239 14.0204 13.9775C12.9428 15.0575 12.3087 16.4368 12.3087 18.0394C12.3087 19.566 12.9405 20.8348 14.0204 22.0276ZM15.3967 15.3545C16.1412 14.6453 17.0327 14.2746 18 14.2746C18.9673 14.2746 19.8588 14.6476 20.6033 15.3545C21.311 16.1006 21.6441 16.9572 21.6441 18.0371C21.6441 19.0433 21.3087 19.8999 20.6033 20.5723C19.8588 21.392 18.9673 21.6914 18 21.6914C17.0327 21.6914 16.1412 21.3943 15.3967 20.5723C14.689 19.9022 14.3559 19.0433 14.3559 18.0371C14.3536 16.9572 14.689 16.1006 15.3967 15.3545ZM23.7258 13.5677C24.6564 13.5677 25.0654 13.121 25.0654 12.2644C25.0654 11.3318 24.6564 10.9588 23.7258 10.9588C22.8711 10.9588 22.4253 11.3318 22.4253 12.2644C22.4253 13.1187 22.8711 13.5677 23.7258 13.5677Z" fill="#2C2247"/>
</svg>
