<svg width="36" height="36" viewBox="0 0 36 36" fill="none" xmlns="http://www.w3.org/2000/svg">
<path d="M18.003 0.500499L18.0048 0.500485C27.6912 0.42896 35.5 8.27855 35.5 17.9807C35.5 27.6447 27.6894 35.5 18.0012 35.5C8.31048 35.5 0.5 27.6469 0.5 17.9807C0.5 8.28371 8.30715 0.536293 18.003 0.500499ZM12.8661 7.51725L12.8517 7.5016L12.8361 7.48723C12.2951 6.99038 11.6517 6.72294 10.786 6.72294C9.92737 6.72294 9.24789 6.98579 8.70006 7.48637L8.68434 7.50073L8.6699 7.51638C8.19303 8.0331 7.82609 8.64178 7.90237 9.41994C7.8319 10.182 8.28914 10.8283 8.65259 11.2662L8.6598 11.2749L8.66739 11.2832C9.1306 11.7927 9.82155 12.1553 10.7102 12.1553C11.5561 12.1553 12.2914 11.8989 12.8494 11.3007C13.3775 10.8083 13.7033 10.1266 13.7033 9.41958V9.38883L13.6995 9.35833C13.6152 8.67509 13.3925 8.09033 12.8661 7.51725ZM13.4069 13.2907V12.7907H12.9069H8.59386H8.09386V13.2907V25.8748V26.3748H8.59386H12.9069V25.8748H13.4069V13.2907ZM19.4878 26.5243H19.9878V26.0243V18.8755C19.9878 18.4485 20.025 18.233 20.096 18.069L20.0989 18.0623L20.1016 18.0555C20.2976 17.5641 20.5479 17.2517 20.8362 17.0672C21.1217 16.8845 21.4969 16.7935 22.008 16.8408C22.4643 16.8842 22.7655 17.071 22.9724 17.3945C23.1966 17.745 23.3399 18.3046 23.3399 19.1354V26.022V26.522H23.8399H28.0426H28.5426V26.022V18.6523C28.5426 16.9404 28.244 15.4464 27.3412 14.4151L27.3412 14.415L27.3349 14.408C26.5547 13.55 25.616 12.8376 24.5107 12.5827L24.5018 12.5806L24.4928 12.5789C23.4246 12.3732 22.372 12.5013 21.3515 12.8151L21.3349 12.8202L21.3187 12.8264C20.7384 13.05 20.2512 13.3486 19.8408 13.7195V13.293V12.793H19.3408H15.1748H14.6748V13.293V26.0243H15.1748V26.5243H19.4878Z" fill="#2C2247" stroke="black"/>
</svg>
